<svg width="130" height="40" viewBox="0 0 130 40" fill="none" xmlns="http://www.w3.org/2000/svg">
<rect width="130" height="40" fill="#C23785"/>
<g clip-path="url(#clip0_3_354)">
<path d="M21 13.3333C22.8113 13.3333 23.0373 13.34 23.748 13.3733C24.458 13.4067 24.9413 13.518 25.3667 13.6833C25.8067 13.8527 26.1773 14.082 26.548 14.452C26.887 14.7853 27.1493 15.1884 27.3167 15.6333C27.4813 16.058 27.5933 16.542 27.6267 17.252C27.658 17.9627 27.6667 18.1887 27.6667 20C27.6667 21.8113 27.66 22.0373 27.6267 22.748C27.5933 23.458 27.4813 23.9413 27.3167 24.3667C27.1498 24.8119 26.8874 25.2151 26.548 25.548C26.2147 25.8869 25.8115 26.1492 25.3667 26.3167C24.942 26.4813 24.458 26.5933 23.748 26.6267C23.0373 26.658 22.8113 26.6667 21 26.6667C19.1887 26.6667 18.9627 26.66 18.252 26.6267C17.542 26.5933 17.0587 26.4813 16.6333 26.3167C16.1882 26.1497 15.785 25.8873 15.452 25.548C15.1129 25.2148 14.8506 24.8117 14.6833 24.3667C14.518 23.942 14.4067 23.458 14.3733 22.748C14.342 22.0373 14.3333 21.8113 14.3333 20C14.3333 18.1887 14.34 17.9627 14.3733 17.252C14.4067 16.5413 14.518 16.0587 14.6833 15.6333C14.8502 15.1881 15.1125 14.7849 15.452 14.452C15.7851 14.1128 16.1883 13.8505 16.6333 13.6833C17.0587 13.518 17.5413 13.4067 18.252 13.3733C18.9627 13.342 19.1887 13.3333 21 13.3333ZM21 16.6667C20.116 16.6667 19.2681 17.0179 18.643 17.643C18.0179 18.2681 17.6667 19.116 17.6667 20C17.6667 20.8841 18.0179 21.7319 18.643 22.357C19.2681 22.9822 20.116 23.3333 21 23.3333C21.8841 23.3333 22.7319 22.9822 23.357 22.357C23.9822 21.7319 24.3333 20.8841 24.3333 20C24.3333 19.116 23.9822 18.2681 23.357 17.643C22.7319 17.0179 21.8841 16.6667 21 16.6667ZM25.3333 16.5C25.3333 16.279 25.2455 16.067 25.0893 15.9108C24.933 15.7545 24.721 15.6667 24.5 15.6667C24.279 15.6667 24.067 15.7545 23.9108 15.9108C23.7545 16.067 23.6667 16.279 23.6667 16.5C23.6667 16.721 23.7545 16.933 23.9108 17.0893C24.067 17.2455 24.279 17.3333 24.5 17.3333C24.721 17.3333 24.933 17.2455 25.0893 17.0893C25.2455 16.933 25.3333 16.721 25.3333 16.5ZM21 18C21.5304 18 22.0392 18.2107 22.4142 18.5858C22.7893 18.9609 23 19.4696 23 20C23 20.5304 22.7893 21.0392 22.4142 21.4142C22.0392 21.7893 21.5304 22 21 22C20.4696 22 19.9609 21.7893 19.5858 21.4142C19.2107 21.0392 19 20.5304 19 20C19 19.4696 19.2107 18.9609 19.5858 18.5858C19.9609 18.2107 20.4696 18 21 18Z" fill="white"/>
</g>
<path d="M39.328 13.384V14.144L40.192 13.832V18H41.008V12.72L39.328 13.384ZM45.086 16.28C45.086 16.824 44.694 17.28 43.886 17.28C43.43 17.28 43.03 16.992 42.814 16.52C42.67 16.6 42.262 16.832 42.118 16.92C42.462 17.624 43.158 18.08 43.886 18.08C45.094 18.08 45.894 17.368 45.894 16.28C45.894 15.16 45.094 14.576 44.126 14.576C43.806 14.576 43.382 14.688 43.15 14.872L43.398 13.552H45.59V12.776H42.734L42.286 15.424L42.774 15.784C43.254 15.424 43.614 15.312 44.038 15.312C44.606 15.312 45.086 15.632 45.086 16.28ZM46.8087 15.4C46.8087 16.872 47.2167 18.08 48.7207 18.08C50.2327 18.08 50.6247 16.872 50.6247 15.4C50.6247 13.912 50.2327 12.704 48.7207 12.704C47.2167 12.704 46.8087 13.912 46.8087 15.4ZM47.6247 15.4C47.6247 14.368 47.8487 13.52 48.7207 13.52C49.5847 13.52 49.8087 14.368 49.8087 15.4C49.8087 16.432 49.5847 17.28 48.7207 17.28C47.8487 17.28 47.6247 16.432 47.6247 15.4ZM51.6368 15.4C51.6368 16.872 52.0448 18.08 53.5488 18.08C55.0608 18.08 55.4528 16.872 55.4528 15.4C55.4528 13.912 55.0608 12.704 53.5488 12.704C52.0448 12.704 51.6368 13.912 51.6368 15.4ZM52.4528 15.4C52.4528 14.368 52.6768 13.52 53.5488 13.52C54.4128 13.52 54.6368 14.368 54.6368 15.4C54.6368 16.432 54.4128 17.28 53.5488 17.28C52.6768 17.28 52.4528 16.432 52.4528 15.4ZM56.4649 15.4C56.4649 16.872 56.8729 18.08 58.3769 18.08C59.8889 18.08 60.2809 16.872 60.2809 15.4C60.2809 13.912 59.8889 12.704 58.3769 12.704C56.8729 12.704 56.4649 13.912 56.4649 15.4ZM57.2809 15.4C57.2809 14.368 57.5049 13.52 58.3769 13.52C59.2409 13.52 59.4649 14.368 59.4649 15.4C59.4649 16.432 59.2409 17.28 58.3769 17.28C57.5049 17.28 57.2809 16.432 57.2809 15.4Z" fill="white"/>
<path d="M39.72 29H40.568V26.68H42.488V25.904H40.568V24.272H42.992V23.488H39.72V29ZM45.1941 28.28C44.5781 28.28 44.0661 27.824 44.0661 27.12C44.0661 26.44 44.5781 25.992 45.1941 25.992C45.8181 25.992 46.3301 26.44 46.3301 27.12C46.3301 27.824 45.8181 28.28 45.1941 28.28ZM45.1941 29.08C46.2581 29.08 47.1541 28.304 47.1541 27.12C47.1541 25.936 46.2581 25.184 45.1941 25.184C44.1381 25.184 43.2501 25.936 43.2501 27.12C43.2501 28.304 44.1381 29.08 45.1941 29.08ZM48.0682 29H48.8922V23.232H48.0682V29ZM50.0448 29H50.8688V23.232H50.0448V29ZM53.7253 28.28C53.1093 28.28 52.5973 27.824 52.5973 27.12C52.5973 26.44 53.1093 25.992 53.7253 25.992C54.3493 25.992 54.8613 26.44 54.8613 27.12C54.8613 27.824 54.3493 28.28 53.7253 28.28ZM53.7253 29.08C54.7893 29.08 55.6853 28.304 55.6853 27.12C55.6853 25.936 54.7893 25.184 53.7253 25.184C52.6693 25.184 51.7813 25.936 51.7813 27.12C51.7813 28.304 52.6693 29.08 53.7253 29.08ZM62.1354 25.264H61.2554L60.3834 27.784L59.5194 25.264H58.7514L57.8874 27.784L57.0234 25.264H56.1434L57.5514 29H58.2234L59.1354 26.352L60.0874 29H60.7674L62.1354 25.264ZM66.3389 27.12C66.3389 25.936 65.5229 25.184 64.4669 25.184C63.4109 25.184 62.5469 25.936 62.5469 27.12C62.5469 28.304 63.4109 29.08 64.4669 29.08C65.1629 29.08 65.8749 28.784 66.1949 28.12L65.5229 27.824C65.3309 28.168 64.9229 28.36 64.5069 28.36C63.8989 28.36 63.4509 28 63.3629 27.424H66.3309C66.3389 27.336 66.3389 27.208 66.3389 27.12ZM63.3629 26.824C63.4509 26.248 63.8909 25.904 64.4669 25.904C65.0349 25.904 65.4429 26.24 65.5309 26.824H63.3629ZM68.0328 27.656C68.0328 26.664 68.3288 25.96 69.0328 25.96C69.1928 25.96 69.3688 25.984 69.5848 26.088L69.7208 25.328C69.6008 25.24 69.3208 25.184 69.0568 25.184C68.5848 25.184 68.2248 25.448 68.0328 26.12V25.264H67.2088V29H68.0328V27.656ZM71.7801 27.504C72.0601 27.568 72.3001 27.696 72.3001 27.944C72.3001 28.224 72.0121 28.392 71.6361 28.392C71.1961 28.392 70.9401 28.176 70.9001 27.856H70.1401C70.1641 28.648 70.8681 29.08 71.5721 29.08C72.4281 29.08 73.0601 28.672 73.0601 27.952C73.0601 27.584 72.8841 27.056 72.0841 26.864L71.5081 26.72C71.3081 26.664 71.1081 26.584 71.0521 26.432C71.0121 26.312 71.0201 26.2 71.0841 26.096C71.1721 25.968 71.3961 25.888 71.6121 25.888C71.8681 25.888 72.1241 26.008 72.1561 26.288H72.9401C72.9001 25.488 72.2361 25.184 71.5801 25.184C70.9001 25.184 70.2841 25.616 70.2441 26.168C70.1881 26.776 70.4761 27.168 71.2761 27.384L71.7801 27.504Z" fill="white"/>
<defs>
<clipPath id="clip0_3_354">
<rect width="16" height="16" fill="white" transform="translate(13 12)"/>
</clipPath>
</defs>
</svg>
