<svg width="130" height="40" viewBox="0 0 130 40" fill="none" xmlns="http://www.w3.org/2000/svg">
<rect width="130" height="40" fill="#42C0F5"/>
<g clip-path="url(#clip0_3_368)">
<path d="M27.7747 15.7706C27.2657 15.9958 26.726 16.1436 26.1733 16.2093C26.7558 15.8609 27.1918 15.3127 27.4 14.6666C26.8533 14.992 26.254 15.22 25.6293 15.3433C25.2097 14.8944 24.6536 14.5966 24.0473 14.4964C23.441 14.3961 22.8186 14.499 22.2768 14.789C21.7351 15.0789 21.3043 15.5398 21.0514 16.0998C20.7986 16.6599 20.7378 17.2878 20.8787 17.886C19.7701 17.8304 18.6856 17.5423 17.6955 17.0404C16.7055 16.5385 15.8321 15.834 15.132 14.9726C14.8842 15.3983 14.754 15.8821 14.7547 16.3746C14.7547 17.3413 15.2467 18.1953 15.9947 18.6953C15.552 18.6814 15.1191 18.5618 14.732 18.3466V18.3813C14.7321 19.0251 14.9549 19.6491 15.3626 20.1474C15.7702 20.6457 16.3377 20.9876 16.9687 21.1153C16.5577 21.2267 16.1269 21.2431 15.7087 21.1633C15.8866 21.7175 16.2333 22.2021 16.7004 22.5494C17.1675 22.8967 17.7314 23.0892 18.3133 23.1C17.735 23.5542 17.0728 23.89 16.3646 24.0881C15.6564 24.2862 14.9161 24.3428 14.186 24.2546C15.4605 25.0743 16.9441 25.5094 18.4593 25.508C23.588 25.508 26.3927 21.2593 26.3927 17.5746C26.3927 17.4546 26.3893 17.3333 26.384 17.2146C26.9299 16.8201 27.4011 16.3313 27.7753 15.7713L27.7747 15.7706Z" fill="white"/>
</g>
<path d="M39.328 11.384V12.144L40.192 11.832V16H41.008V10.72L39.328 11.384ZM45.086 14.28C45.086 14.824 44.694 15.28 43.886 15.28C43.43 15.28 43.03 14.992 42.814 14.52C42.67 14.6 42.262 14.832 42.118 14.92C42.462 15.624 43.158 16.08 43.886 16.08C45.094 16.08 45.894 15.368 45.894 14.28C45.894 13.16 45.094 12.576 44.126 12.576C43.806 12.576 43.382 12.688 43.15 12.872L43.398 11.552H45.59V10.776H42.734L42.286 13.424L42.774 13.784C43.254 13.424 43.614 13.312 44.038 13.312C44.606 13.312 45.086 13.632 45.086 14.28ZM46.8087 13.4C46.8087 14.872 47.2167 16.08 48.7207 16.08C50.2327 16.08 50.6247 14.872 50.6247 13.4C50.6247 11.912 50.2327 10.704 48.7207 10.704C47.2167 10.704 46.8087 11.912 46.8087 13.4ZM47.6247 13.4C47.6247 12.368 47.8487 11.52 48.7207 11.52C49.5847 11.52 49.8087 12.368 49.8087 13.4C49.8087 14.432 49.5847 15.28 48.7207 15.28C47.8487 15.28 47.6247 14.432 47.6247 13.4ZM51.6368 13.4C51.6368 14.872 52.0448 16.08 53.5488 16.08C55.0608 16.08 55.4528 14.872 55.4528 13.4C55.4528 11.912 55.0608 10.704 53.5488 10.704C52.0448 10.704 51.6368 11.912 51.6368 13.4ZM52.4528 13.4C52.4528 12.368 52.6768 11.52 53.5488 11.52C54.4128 11.52 54.6368 12.368 54.6368 13.4C54.6368 14.432 54.4128 15.28 53.5488 15.28C52.6768 15.28 52.4528 14.432 52.4528 13.4ZM56.4649 13.4C56.4649 14.872 56.8729 16.08 58.3769 16.08C59.8889 16.08 60.2809 14.872 60.2809 13.4C60.2809 11.912 59.8889 10.704 58.3769 10.704C56.8729 10.704 56.4649 11.912 56.4649 13.4ZM57.2809 13.4C57.2809 12.368 57.5049 11.52 58.3769 11.52C59.2409 11.52 59.4649 12.368 59.4649 13.4C59.4649 14.432 59.2409 15.28 58.3769 15.28C57.5049 15.28 57.2809 14.432 57.2809 13.4Z" fill="white"/>
<path d="M39.72 27H40.568V24.68H42.488V23.904H40.568V22.272H42.992V21.488H39.72V27ZM45.1941 26.28C44.5781 26.28 44.0661 25.824 44.0661 25.12C44.0661 24.44 44.5781 23.992 45.1941 23.992C45.8181 23.992 46.3301 24.44 46.3301 25.12C46.3301 25.824 45.8181 26.28 45.1941 26.28ZM45.1941 27.08C46.2581 27.08 47.1541 26.304 47.1541 25.12C47.1541 23.936 46.2581 23.184 45.1941 23.184C44.1381 23.184 43.2501 23.936 43.2501 25.12C43.2501 26.304 44.1381 27.08 45.1941 27.08ZM48.0682 27H48.8922V21.232H48.0682V27ZM50.0448 27H50.8688V21.232H50.0448V27ZM53.7253 26.28C53.1093 26.28 52.5973 25.824 52.5973 25.12C52.5973 24.44 53.1093 23.992 53.7253 23.992C54.3493 23.992 54.8613 24.44 54.8613 25.12C54.8613 25.824 54.3493 26.28 53.7253 26.28ZM53.7253 27.08C54.7893 27.08 55.6853 26.304 55.6853 25.12C55.6853 23.936 54.7893 23.184 53.7253 23.184C52.6693 23.184 51.7813 23.936 51.7813 25.12C51.7813 26.304 52.6693 27.08 53.7253 27.08ZM62.1354 23.264H61.2554L60.3834 25.784L59.5194 23.264H58.7514L57.8874 25.784L57.0234 23.264H56.1434L57.5514 27H58.2234L59.1354 24.352L60.0874 27H60.7674L62.1354 23.264ZM66.3389 25.12C66.3389 23.936 65.5229 23.184 64.4669 23.184C63.4109 23.184 62.5469 23.936 62.5469 25.12C62.5469 26.304 63.4109 27.08 64.4669 27.08C65.1629 27.08 65.8749 26.784 66.1949 26.12L65.5229 25.824C65.3309 26.168 64.9229 26.36 64.5069 26.36C63.8989 26.36 63.4509 26 63.3629 25.424H66.3309C66.3389 25.336 66.3389 25.208 66.3389 25.12ZM63.3629 24.824C63.4509 24.248 63.8909 23.904 64.4669 23.904C65.0349 23.904 65.4429 24.24 65.5309 24.824H63.3629ZM68.0328 25.656C68.0328 24.664 68.3288 23.96 69.0328 23.96C69.1928 23.96 69.3688 23.984 69.5848 24.088L69.7208 23.328C69.6008 23.24 69.3208 23.184 69.0568 23.184C68.5848 23.184 68.2248 23.448 68.0328 24.12V23.264H67.2088V27H68.0328V25.656ZM71.7801 25.504C72.0601 25.568 72.3001 25.696 72.3001 25.944C72.3001 26.224 72.0121 26.392 71.6361 26.392C71.1961 26.392 70.9401 26.176 70.9001 25.856H70.1401C70.1641 26.648 70.8681 27.08 71.5721 27.08C72.4281 27.08 73.0601 26.672 73.0601 25.952C73.0601 25.584 72.8841 25.056 72.0841 24.864L71.5081 24.72C71.3081 24.664 71.1081 24.584 71.0521 24.432C71.0121 24.312 71.0201 24.2 71.0841 24.096C71.1721 23.968 71.3961 23.888 71.6121 23.888C71.8681 23.888 72.1241 24.008 72.1561 24.288H72.9401C72.9001 23.488 72.2361 23.184 71.5801 23.184C70.9001 23.184 70.2841 23.616 70.2441 24.168C70.1881 24.776 70.4761 25.168 71.2761 25.384L71.7801 25.504Z" fill="white"/>
<defs>
<clipPath id="clip0_3_368">
<rect width="16" height="16" fill="white" transform="translate(13 12)"/>
</clipPath>
</defs>
</svg>
