<svg width="130" height="40" viewBox="0 0 130 40" fill="none" xmlns="http://www.w3.org/2000/svg">
<rect width="130" height="40" fill="#EF5043"/>
<g clip-path="url(#clip0_3_361)">
<path d="M24.362 16.332C24.6667 17.52 24.6667 20 24.6667 20C24.6667 20 24.6667 22.48 24.362 23.668C24.1927 24.3247 23.6973 24.8413 23.07 25.016C21.9307 25.3333 18 25.3333 18 25.3333C18 25.3333 14.0713 25.3333 12.93 25.016C12.3 24.8387 11.8053 24.3227 11.638 23.668C11.3333 22.48 11.3333 20 11.3333 20C11.3333 20 11.3333 17.52 11.638 16.332C11.8073 15.6753 12.3027 15.1587 12.93 14.984C14.0713 14.6667 18 14.6667 18 14.6667C18 14.6667 21.9307 14.6667 23.07 14.984C23.7 15.1613 24.1947 15.6773 24.362 16.332ZM16.6667 22.3333L20.6667 20L16.6667 17.6667V22.3333Z" fill="white"/>
</g>
<path d="M39.328 11.384V12.144L40.192 11.832V16H41.008V10.72L39.328 11.384ZM45.086 14.28C45.086 14.824 44.694 15.28 43.886 15.28C43.43 15.28 43.03 14.992 42.814 14.52C42.67 14.6 42.262 14.832 42.118 14.92C42.462 15.624 43.158 16.08 43.886 16.08C45.094 16.08 45.894 15.368 45.894 14.28C45.894 13.16 45.094 12.576 44.126 12.576C43.806 12.576 43.382 12.688 43.15 12.872L43.398 11.552H45.59V10.776H42.734L42.286 13.424L42.774 13.784C43.254 13.424 43.614 13.312 44.038 13.312C44.606 13.312 45.086 13.632 45.086 14.28ZM46.8087 13.4C46.8087 14.872 47.2167 16.08 48.7207 16.08C50.2327 16.08 50.6247 14.872 50.6247 13.4C50.6247 11.912 50.2327 10.704 48.7207 10.704C47.2167 10.704 46.8087 11.912 46.8087 13.4ZM47.6247 13.4C47.6247 12.368 47.8487 11.52 48.7207 11.52C49.5847 11.52 49.8087 12.368 49.8087 13.4C49.8087 14.432 49.5847 15.28 48.7207 15.28C47.8487 15.28 47.6247 14.432 47.6247 13.4ZM51.6368 13.4C51.6368 14.872 52.0448 16.08 53.5488 16.08C55.0608 16.08 55.4528 14.872 55.4528 13.4C55.4528 11.912 55.0608 10.704 53.5488 10.704C52.0448 10.704 51.6368 11.912 51.6368 13.4ZM52.4528 13.4C52.4528 12.368 52.6768 11.52 53.5488 11.52C54.4128 11.52 54.6368 12.368 54.6368 13.4C54.6368 14.432 54.4128 15.28 53.5488 15.28C52.6768 15.28 52.4528 14.432 52.4528 13.4ZM56.4649 13.4C56.4649 14.872 56.8729 16.08 58.3769 16.08C59.8889 16.08 60.2809 14.872 60.2809 13.4C60.2809 11.912 59.8889 10.704 58.3769 10.704C56.8729 10.704 56.4649 11.912 56.4649 13.4ZM57.2809 13.4C57.2809 12.368 57.5049 11.52 58.3769 11.52C59.2409 11.52 59.4649 12.368 59.4649 13.4C59.4649 14.432 59.2409 15.28 58.3769 15.28C57.5049 15.28 57.2809 14.432 57.2809 13.4Z" fill="white"/>
<path d="M39.4 25.4C39.4 26.296 40.2 27.08 41.344 27.08C42.392 27.08 43.136 26.464 43.224 25.6C43.312 24.8 42.856 24.184 41.736 23.888L41.032 23.704C40.376 23.536 40.296 23.2 40.296 22.984C40.296 22.536 40.736 22.224 41.248 22.224C41.824 22.224 42.208 22.544 42.208 23.056H43.056C43.056 22.048 42.288 21.424 41.264 21.424C40.296 21.424 39.448 22.056 39.448 23C39.448 23.488 39.632 24.16 40.816 24.48L41.512 24.656C42.024 24.776 42.416 25.04 42.384 25.552C42.328 25.96 41.992 26.304 41.344 26.304C40.68 26.304 40.272 25.848 40.248 25.4H39.4ZM46.6507 25.272C46.6507 26.016 46.1707 26.28 45.6907 26.28C45.2427 26.28 44.9147 25.96 44.9147 25.344V23.264H44.0907V25.44C44.0827 26.504 44.6187 27.08 45.5387 27.08C45.9307 27.08 46.4347 26.88 46.6507 26.456V27H47.4747V23.264H46.6507V25.272ZM49.4549 25.12C49.4549 24.392 50.0389 23.984 50.5989 23.984C51.2229 23.984 51.7269 24.432 51.7269 25.12C51.7269 25.808 51.2229 26.28 50.5989 26.28C49.9909 26.28 49.4549 25.848 49.4549 25.12ZM49.4469 27V26.456C49.6789 26.864 50.1829 27.08 50.6949 27.08C51.6949 27.08 52.5669 26.312 52.5669 25.136C52.5669 23.936 51.7189 23.184 50.7029 23.184C50.1669 23.184 49.6789 23.392 49.4469 23.8V21.232H48.6229V27H49.4469ZM54.8661 25.504C55.1461 25.568 55.3861 25.696 55.3861 25.944C55.3861 26.224 55.0981 26.392 54.7221 26.392C54.2821 26.392 54.0261 26.176 53.9861 25.856H53.2261C53.2501 26.648 53.9541 27.08 54.6581 27.08C55.5141 27.08 56.1461 26.672 56.1461 25.952C56.1461 25.584 55.9701 25.056 55.1701 24.864L54.5941 24.72C54.3941 24.664 54.1941 24.584 54.1381 24.432C54.0981 24.312 54.1061 24.2 54.1701 24.096C54.2581 23.968 54.4821 23.888 54.6981 23.888C54.9541 23.888 55.2101 24.008 55.2421 24.288H56.0261C55.9861 23.488 55.3221 23.184 54.6661 23.184C53.9861 23.184 53.3701 23.616 53.3301 24.168C53.2741 24.776 53.5621 25.168 54.3621 25.384L54.8661 25.504ZM56.8048 25.12C56.8048 26.304 57.7248 27.08 58.7968 27.08C59.4048 27.08 59.9328 26.84 60.2848 26.424L59.6368 25.92C59.4368 26.152 59.1248 26.288 58.7968 26.288C58.1728 26.288 57.6208 25.816 57.6208 25.12C57.6208 24.424 58.1728 23.984 58.7968 23.984C59.1248 23.984 59.4368 24.112 59.6368 24.344L60.2768 23.832C59.9248 23.416 59.3968 23.184 58.7968 23.184C57.7248 23.184 56.8048 23.936 56.8048 25.12ZM61.9781 25.656C61.9781 24.664 62.2741 23.96 62.9781 23.96C63.1381 23.96 63.3141 23.984 63.5301 24.088L63.6661 23.328C63.5461 23.24 63.2661 23.184 63.0021 23.184C62.5301 23.184 62.1701 23.448 61.9781 24.12V23.264H61.1541V27H61.9781V25.656ZM65.1654 23.264H64.3494V27H65.1654V23.264ZM64.2054 21.752C64.2054 22.048 64.4614 22.272 64.7574 22.272C65.0694 22.272 65.3014 22.048 65.3014 21.752C65.3014 21.456 65.0694 21.232 64.7574 21.232C64.4614 21.232 64.2054 21.456 64.2054 21.752ZM67.1502 25.12C67.1502 24.392 67.7342 23.984 68.2942 23.984C68.9182 23.984 69.4222 24.432 69.4222 25.12C69.4222 25.808 68.9182 26.28 68.2942 26.28C67.6862 26.28 67.1502 25.848 67.1502 25.12ZM67.1422 27V26.456C67.3742 26.864 67.8782 27.08 68.3902 27.08C69.3902 27.08 70.2622 26.312 70.2622 25.136C70.2622 23.936 69.4142 23.184 68.3982 23.184C67.8622 23.184 67.3742 23.392 67.1422 23.8V21.232H66.3182V27H67.1422ZM74.7374 25.12C74.7374 23.936 73.9214 23.184 72.8654 23.184C71.8094 23.184 70.9454 23.936 70.9454 25.12C70.9454 26.304 71.8094 27.08 72.8654 27.08C73.5614 27.08 74.2734 26.784 74.5934 26.12L73.9214 25.824C73.7294 26.168 73.3214 26.36 72.9054 26.36C72.2974 26.36 71.8494 26 71.7614 25.424H74.7294C74.7374 25.336 74.7374 25.208 74.7374 25.12ZM71.7614 24.824C71.8494 24.248 72.2894 23.904 72.8654 23.904C73.4334 23.904 73.8414 24.24 73.9294 24.824H71.7614Z" fill="white"/>
<defs>
<clipPath id="clip0_3_361">
<rect width="16" height="16" fill="white" transform="translate(10 12)"/>
</clipPath>
</defs>
</svg>
